<svg width="222" height="267" viewBox="0 0 222 267" fill="none" xmlns="http://www.w3.org/2000/svg">
<path d="M22.57 252.355C22.57 252.355 72 256.685 94.33 138.825C94.6079 137.379 94.5945 135.892 94.2907 134.451C93.9869 133.01 93.3987 131.645 92.5606 130.434C91.7225 129.224 90.6513 128.192 89.4098 127.401C88.1682 126.609 86.7812 126.073 85.33 125.825C55.93 120.885 51.2 117.305 45.63 127.545C39.43 138.965 19.03 181.115 28.03 220.675C30.59 233.195 31.03 244.575 22.58 252.355H22.57Z" fill="#36D48F"/>
<path d="M52.86 110.365C73.11 109.015 92.48 104.715 109.28 92.1846C130.28 76.4846 130.28 45.1346 112.83 33.0046C112.781 32.9519 112.724 32.9079 112.66 32.8746L112.52 32.8146C110.52 31.8146 109.77 30.9946 107.75 30.4446C115.12 19.8146 129.6 11.1846 138.09 6.76458C138.393 6.60868 138.631 6.35196 138.765 6.03879C138.898 5.72563 138.918 5.37571 138.82 5.04952C138.723 4.72333 138.515 4.44138 138.232 4.2524C137.949 4.06342 137.609 3.9793 137.27 4.01458C112.53 6.61457 97.67 19.2546 89.53 29.4846H89.43C88.0716 31.1639 86.8256 32.9311 85.7 34.7746C85.857 32.898 86.5092 31.0967 87.59 29.5546C85.9141 29.6579 84.245 29.8515 82.59 30.1346C82.0049 30.2349 81.4215 30.3449 80.84 30.4646C76.6914 31.3581 72.6317 32.6232 68.71 34.2446C72.71 21.7646 84.78 9.24458 91.95 2.54458C92.2047 2.31509 92.3704 2.00332 92.4183 1.66388C92.4662 1.32444 92.3931 0.978988 92.2118 0.688029C92.0306 0.397071 91.7527 0.179166 91.4269 0.0724917C91.1012 -0.0341828 90.7482 -0.0228245 90.43 0.104575C61.43 11.5046 51.53 34.0046 48.29 45.5246H48.21C47.1225 46.218 46.1787 47.1143 45.43 48.1646C35.07 63.8146 29.97 81.3046 25.93 100.545C25.6866 101.742 25.7091 102.978 25.996 104.165C26.2829 105.353 26.8272 106.462 27.5903 107.416C28.3535 108.37 29.3168 109.145 30.4123 109.685C31.5078 110.226 32.7087 110.519 33.93 110.545C40.43 110.675 46.69 110.775 52.86 110.345V110.365Z" fill="#0B1F40"/>
<path d="M77.14 65.0846C79.94 60.9346 84.94 57.6646 89.64 55.5846C95.14 53.1546 100.54 55.1046 103.64 60.6846C106.64 66.0846 105 73.8846 99.97 77.3646C91.37 83.3646 81.62 84.6646 69.75 83.8446C72.42 76.7946 73.69 70.2146 77.13 65.0946L77.14 65.0846Z" fill="white"/>
<path d="M183.38 156.245C180.52 155.895 177.63 155.875 173.78 155.645C198.11 141.195 216.1 116.765 220.73 92.7246C222.66 82.7246 217.87 76.1246 207.81 75.6246C202.56 75.4231 197.303 75.6874 192.1 76.4146L145.96 82.7546C134.76 83.9546 125.26 86.1546 116.16 94.5846C101.38 108.245 81.84 112.735 62.24 115.415C51.06 116.745 47.69 118.495 47.69 118.495C44.69 119.695 41.79 122.095 39.56 126.495C37.56 130.495 19.84 166.495 18.2 189.495C17.68 196.795 19.2 205.195 20.64 213.335C22.34 222.835 23.51 230.635 22.84 236.535C17.84 244.835 1.62 262.755 0 266.075C26.2 264.345 49.1 258.805 69.68 242.545C69.8833 242.379 70.036 242.16 70.1208 241.912C70.2056 241.664 70.219 241.397 70.1596 241.142C70.1002 240.886 69.9704 240.653 69.7848 240.468C69.5993 240.283 69.3655 240.153 69.11 240.095L62.01 238.415C61.7937 238.372 61.5957 238.263 61.4427 238.105C61.2896 237.946 61.1889 237.744 61.1541 237.526C61.1192 237.308 61.1519 237.085 61.2477 236.886C61.3435 236.688 61.4979 236.523 61.69 236.415C62.12 236.145 85.96 235.515 97.45 235.655C123.6 235.975 146.67 227.205 167.55 212.105C179.596 203.476 189.235 191.909 195.55 178.505C200.72 167.675 195.29 157.685 183.35 156.245H183.38ZM31.66 218.045L30.53 211.545L28.8 200.905C30.9568 202.767 33.1852 204.545 35.48 206.235C41.5176 210.66 47.9206 214.564 54.62 217.905C43.62 233.905 33.52 239.825 32.42 240.435C33.74 233.615 32.92 225.765 31.65 218.035L31.66 218.045ZM48.56 131.045C49.62 128.915 50.8 128.045 51.83 127.725C52.1222 127.637 52.425 127.59 52.73 127.585C53.11 127.585 73.29 130.705 82.17 132.265C81.3 141.135 80.09 149.325 78.6 156.885C66.6 157.085 49.52 153.655 42.6 152.135C41.6 151.735 40.6 151.315 39.6 150.855C44.08 139.995 48.2 131.735 48.56 130.995V131.045ZM35.96 160.265C38.2951 162.699 40.883 164.878 43.68 166.765C50.25 171.245 60.01 175.695 73.68 176.965C71.2305 185.206 68.1411 193.244 64.44 201.005C55.4668 200.251 46.6808 198.014 38.44 194.385C34.9297 192.806 31.5579 190.936 28.36 188.795C29.22 180.335 32.36 169.915 35.96 160.245V160.265ZM140.32 188.635C134.65 192.765 128.4 197.235 121.77 198.635C114.15 200.215 106.25 200.395 97.94 200.695C100.811 195.391 102.778 189.645 103.76 183.695L105.13 174.935L135.63 175.175C138.48 175.175 143.17 177.475 143.63 179.475C144.29 182.155 142.63 186.925 140.33 188.595L140.32 188.635ZM158.32 124.775C157.946 126.648 157.198 128.427 156.12 130.005C149.52 138.545 140.27 143.185 129.69 144.125C123.336 144.56 116.963 144.644 110.6 144.375H108.33C108.33 134.555 106.43 128.375 101.27 126.325C98.83 125.325 93.64 124.195 87.62 123.065L116.94 120.825C127.88 119.925 138.8 118.695 149.76 118.145C151.615 118.153 153.454 118.492 155.19 119.145C156.317 119.518 157.262 120.3 157.84 121.337C158.418 122.374 158.586 123.59 158.31 124.745L158.32 124.775Z" fill="#0B1F40"/>
</svg>
