<svg width="891" height="156" viewBox="0 0 891 156" fill="none" xmlns="http://www.w3.org/2000/svg">
<path d="M155.5 44L150.5 67.78C149.67 71.08 147.8 72.78 144.5 72.78H64.8C53 72.78 50.1 76.08 47 90.16C43.07 108.56 42.45 111.66 42.45 114.16C42.45 120.36 45.75 122.02 54.25 122.02H134C137.32 122.02 138.56 123.68 137.94 127.02L132.94 150.82C132.107 154.153 130.04 155.82 126.74 155.82H42.86C12 155.67 0 147.6 0 128.17C0 123.62 0.620001 118.45 8.28 82.05C14.7 51.23 29.61 39.05 67.71 39.05H151.57C154.87 39.05 156.12 40.71 155.5 44.05V44ZM216.65 6.77L186.21 149.47C185.377 153.603 182.893 155.67 178.76 155.67H150.76C146.627 155.67 144.96 153.603 145.76 149.47L176.2 6.77C177.027 2.63666 179.51 0.57 183.65 0.57H211.65C215.783 0.57 217.45 2.63666 216.65 6.77ZM382.43 45.24L368.15 112.64C361.52 143.46 346.61 155.64 308.52 155.64H249.52C218.67 155.64 206.67 147.78 206.67 128.34C206.742 123.05 207.366 117.781 208.53 112.62L222.83 45.22C223.61 41.0733 226.083 39 230.25 39H258.2C262.333 39 264 41.0667 263.2 45.2L251 102.5C250.102 106.164 249.55 109.903 249.35 113.67C249.35 118.67 251.83 119.87 259.49 119.87H312C323.8 119.87 326.9 116.57 329.8 102.5L342.02 45.22C342.847 41.0867 345.33 39.02 349.47 39.02H377.42C381.573 39.02 383.24 41.0867 382.42 45.22L382.43 45.24ZM724.2 96.3C722.34 105.4 718 108.3 709.7 108.3H613.2C612.653 110.54 612.318 112.827 612.2 115.13C612.2 119.88 615.1 121.95 624.4 121.95H710.33C713.63 121.95 714.89 123.61 714.26 126.95L709.26 150.75C708.44 154.083 706.373 155.75 703.06 155.75H613C582.14 155.75 570.14 147.69 570.14 128.25C570.14 123.7 570.76 118.53 578.42 82.13C584.84 51.31 599.74 39.13 637.84 39.13H699.74C722.51 39.13 731.01 44.71 731.01 59.4C731.01 63.54 730.38 68.3 724.17 96.4L724.2 96.3ZM685.27 69.84H635.57C623.77 69.84 620.67 73.14 618.39 83.9H685.26C685.562 83.9436 685.87 83.9234 686.164 83.8405C686.458 83.7576 686.731 83.6139 686.965 83.4188C687.2 83.2236 687.391 82.9814 687.526 82.7077C687.661 82.434 687.738 82.135 687.75 81.83C689.41 74.39 689.41 73.77 689.41 73.13C689.41 70.86 688.17 69.83 685.26 69.83L685.27 69.84ZM883.91 96.3C882.05 105.4 877.71 108.3 869.41 108.3H772.93C772.385 110.541 772.051 112.827 771.93 115.13C771.93 119.88 774.83 121.95 784.15 121.95H870.08C873.38 121.95 874.63 123.61 874.01 126.95L869.01 150.75C868.177 154.083 866.11 155.75 862.81 155.75H772.73C741.88 155.75 729.87 147.69 729.87 128.25C729.87 123.7 730.49 118.53 738.15 82.13C744.57 51.31 759.48 39.13 797.58 39.13H859.48C882.25 39.13 890.74 44.71 890.74 59.4C890.74 63.54 890.12 68.3 883.91 96.4V96.3ZM845 69.85H795.3C783.5 69.85 780.4 73.15 778.12 83.91H845C845.302 83.9521 845.609 83.9306 845.902 83.8471C846.195 83.7636 846.468 83.6199 846.702 83.425C846.937 83.2302 847.128 82.9886 847.263 82.7156C847.399 82.4427 847.476 82.1445 847.49 81.84C849.15 74.4 849.15 73.78 849.15 73.14C849.15 70.87 847.9 69.84 845 69.84V69.85Z" fill="#0B1F40"/>
</svg>
