<svg width="923" height="299" viewBox="0 0 923 299" fill="none" xmlns="http://www.w3.org/2000/svg">
<g clip-path="url(#clip0_1_2)">
<path d="M166.8 259.67C161.13 259.67 157.96 257.25 156.3 255.22C154.64 253.19 152.87 249.56 154 243.9L184.45 101.15C186.05 93.27 191.75 88.57 199.73 88.57H227.73C233.4 88.57 236.57 90.99 238.23 93.02C239.89 95.05 241.66 98.68 240.53 104.34L210.08 247.1C208.48 254.98 202.78 259.68 194.8 259.68L166.8 259.67Z" fill="white"/>
<path d="M227.68 96.57C231.813 96.57 233.48 98.6367 232.68 102.77L202.24 245.47C201.407 249.603 198.923 251.67 194.79 251.67H166.79C162.657 251.67 160.99 249.603 161.79 245.47L192.23 102.77C193.057 98.6367 195.54 96.57 199.68 96.57H227.68M227.68 80.57H199.68C188 80.57 179 88 176.6 99.5L146.2 242.13C146.2 242.19 146.2 242.26 146.15 242.33C144.32 251.51 147.85 257.53 150.15 260.33C152.45 263.13 157.58 267.71 166.85 267.71H194.85C206.55 267.71 215.61 260.28 217.95 248.71L248.37 106.11C248.37 106.04 248.37 105.98 248.42 105.91C250.25 96.71 246.72 90.71 244.42 87.91C242.12 85.11 236.98 80.54 227.72 80.54L227.68 80.57Z" fill="white"/>
<path d="M58.86 259.67C35.18 259.67 8 255.67 8 224.17C8 218.77 8.76 212.95 16.46 176.41C23.86 140.88 42.7 127 83.7 127H167.56C172.66 127 175.56 129.22 177.11 131.08C178.66 132.94 180.31 136.28 179.35 141.45L174.35 165.39C174.35 165.49 174.3 165.59 174.28 165.69C172.55 172.59 167.41 176.69 160.52 176.69H80.8C77.2 176.69 75 177.05 74.3 177.77C72.67 179.39 71.3 185.71 70.8 187.77L66.45 209.69C67.7076 209.839 68.9737 209.906 70.24 209.89H150C155.1 209.89 158 212.11 159.56 213.97C161.12 215.83 162.76 219.17 161.8 224.33L156.8 248.27C156.783 248.375 156.759 248.478 156.73 248.58C155 255.48 149.78 259.58 142.73 259.58L58.86 259.67Z" fill="white"/>
<path d="M167.57 135C170.87 135 172.12 136.66 171.5 140L166.5 163.78C165.67 167.08 163.8 168.78 160.5 168.78H80.8C69 168.78 66.1 172.08 63 186.16C59.07 204.56 58.45 207.66 58.45 210.16C58.45 216.36 61.75 218.02 70.25 218.02H150C153.32 218.02 154.56 219.68 153.94 223.02L148.94 246.82C148.107 250.153 146.04 251.82 142.74 251.82H58.86C28 251.67 16 243.6 16 224.17C16 219.62 16.62 214.45 24.28 178.05C30.7 147.23 45.61 135.05 83.71 135.05H167.57M167.57 119.05H83.7C60.85 119.05 44.6 123.22 32.56 132.15C20.52 141.08 12.79 154.75 8.56 174.8C0.7 212.38 0 217.93 0 224.17C0 239.67 5.77 251.25 17.16 258.63C26.66 264.8 39.92 267.63 58.86 267.63H142.72C147.752 267.717 152.661 266.066 156.619 262.957C160.577 259.848 163.342 255.47 164.45 250.56C164.504 250.355 164.55 250.148 164.59 249.94L169.65 225.84C171.28 217.19 167.88 211.51 165.71 208.89C163.774 206.639 161.358 204.851 158.639 203.658C155.92 202.466 152.967 201.899 150 202H76L78.64 189.56C79.12 187.36 79.52 185.84 79.84 184.8H160.56C171.19 184.8 179.44 178.26 182.08 167.73C182.08 167.53 182.18 167.33 182.22 167.11L187.28 143.01C188.91 134.36 185.51 128.67 183.34 126.01C181.416 123.738 179.004 121.928 176.284 120.716C173.564 119.504 170.606 118.921 167.63 119.01L167.57 119.05ZM265.5 259.67C241.82 259.67 214.65 255.67 214.65 224.37C214.714 218.517 215.385 212.685 216.65 206.97L231 139.57C232.57 131.74 238.3 127.02 246.28 127.02H274.2C279.88 127.02 283.05 129.44 284.72 131.47C286.39 133.5 288.15 137.14 287.02 142.8L274.79 200.18C274.14 203.31 273.64 205.9 273.43 207.84H328C331.65 207.84 333.87 207.47 334.6 206.74C335.7 205.64 336.83 202.34 337.96 196.84L350.16 139.54C351.76 131.66 357.46 126.96 365.46 126.96H393.46C399.13 126.96 402.3 129.38 403.96 131.41C405.62 133.44 407.39 137.08 406.26 142.74L392 210.3C384.37 245.83 365.45 259.66 324.55 259.66L265.5 259.67Z" fill="white"/>
<path d="M393.46 135C397.613 135 399.28 137.067 398.46 141.2L384.18 208.6C377.55 239.42 362.64 251.6 324.55 251.6H265.55C234.7 251.6 222.7 243.74 222.7 224.3C222.772 219.01 223.396 213.741 224.56 208.58L238.86 141.18C239.627 137.047 242.093 134.98 246.26 134.98H274.21C278.343 134.98 280.01 137.047 279.21 141.18L267.01 198.48C266.112 202.144 265.56 205.883 265.36 209.65C265.36 214.65 267.84 215.85 275.5 215.85H328C339.8 215.85 342.9 212.55 345.8 198.48L358.02 141.2C358.847 137.067 361.33 135 365.47 135H393.42M393.42 119H365.52C353.82 119 344.76 126.43 342.4 137.94L330.2 195.26C329.77 197.36 329.4 198.83 329.1 199.86H283L294.8 144.36C296.64 135.16 293.1 129.16 290.8 126.36C288.5 123.56 283.47 118.99 274.2 118.99H246.25C234.55 118.99 225.49 126.43 223.13 137.94L208.86 205.3C207.46 211.538 206.719 217.907 206.65 224.3C206.65 239.8 212.45 251.4 223.87 258.7C233.34 264.77 246.57 267.6 265.5 267.6H324.5C347.33 267.6 363.58 263.44 375.64 254.5C387.7 245.56 395.46 231.98 399.77 211.95L414.07 144.31C415.91 135.11 412.37 129.11 410.07 126.31C407.77 123.51 402.64 118.93 393.37 118.93L393.42 119ZM788.72 259.67C765.04 259.67 737.86 255.67 737.86 224.17C737.86 218.77 738.62 212.94 746.32 176.41C753.72 140.89 772.57 127.04 813.57 127.04H875.47C887.22 127.04 914.73 127.04 914.73 155.31C914.73 160.25 914.1 165.13 907.73 193.99C905.73 203.75 900.73 209.54 892.56 211.54C893.707 212.179 894.725 213.027 895.56 214.04C897.12 215.92 898.78 219.24 897.82 224.4C897.82 224.46 892.82 248.4 892.82 248.4C892.803 248.505 892.779 248.608 892.75 248.71C891.02 255.61 885.8 259.71 878.75 259.71L788.72 259.67Z" fill="white"/>
<path d="M875.5 135C898.27 135 906.76 140.58 906.76 155.27C906.76 159.41 906.14 164.17 899.93 192.27C898.07 201.37 893.73 204.27 885.43 204.27H788.95C788.405 206.511 788.071 208.797 787.95 211.1C787.95 215.85 790.85 217.92 800.17 217.92H886.1C889.4 217.92 890.65 219.58 890.03 222.92L885.03 246.72C884.197 250.053 882.13 251.72 878.83 251.72H788.75C757.9 251.72 745.89 243.66 745.89 224.22C745.89 219.67 746.51 214.5 754.17 178.1C760.59 147.28 775.5 135.1 813.6 135.1H875.5M794.13 179.98H861C861.302 180.022 861.609 180.001 861.902 179.917C862.195 179.834 862.468 179.69 862.702 179.495C862.937 179.3 863.128 179.059 863.263 178.786C863.399 178.513 863.476 178.214 863.49 177.91C865.15 170.47 865.15 169.85 865.15 169.21C865.15 166.94 863.9 165.91 861 165.91H811.3C799.5 165.91 796.4 169.21 794.12 179.97M875.5 119H813.6C790.75 119 774.5 123.17 762.46 132.1C750.42 141.03 742.69 154.7 738.46 174.75C730.56 212.35 729.84 217.88 729.84 224.13C729.84 239.63 735.61 251.21 747 258.59C756.5 264.76 769.76 267.59 788.7 267.59H878.82C883.852 267.677 888.761 266.026 892.719 262.917C896.677 259.808 899.442 255.43 900.55 250.52C900.6 250.32 900.65 250.12 900.69 249.9L905.69 226.12C905.69 226 905.74 225.89 905.76 225.78C906.544 221.965 906.263 218.007 904.95 214.34C910.28 210.19 913.89 203.89 915.62 195.57C922.18 165.84 922.8 160.89 922.8 155.22C922.8 138.92 915 130.42 908.43 126.16C900.76 121.16 890.61 118.96 875.53 118.96L875.5 119Z" fill="white"/>
<path d="M629 259.67C605.32 259.67 578.14 255.67 578.14 224.17C578.14 218.77 578.9 212.94 586.59 176.41C593.99 140.89 612.89 127.01 653.87 127.01H715.77C727.52 127.01 755.04 127.01 755.04 155.28C755.04 160.2 754.4 165.08 748.04 193.96C746.04 203.72 741.04 209.51 732.87 211.51C734.017 212.153 735.034 213.004 735.87 214.02C737.43 215.9 739.09 219.22 738.12 224.38L733.12 248.32C733.12 248.42 733.12 248.52 733.05 248.62C731.32 255.52 726.05 259.62 719.05 259.62L629 259.67Z" fill="white"/>
<path d="M715.78 135C738.55 135 747.05 140.58 747.05 155.27C747.05 159.41 746.42 164.17 740.21 192.27C738.35 201.37 734.01 204.27 725.71 204.27H629.21C628.663 206.51 628.328 208.797 628.21 211.1C628.21 215.85 631.11 217.92 640.41 217.92H726.34C729.64 217.92 730.9 219.58 730.27 222.92L725.27 246.72C724.45 250.053 722.383 251.72 719.07 251.72H629C598.14 251.72 586.14 243.66 586.14 224.22C586.14 219.67 586.76 214.5 594.42 178.1C600.84 147.28 615.74 135.1 653.84 135.1H715.74M634.37 179.98H701.24C701.542 180.024 701.85 180.003 702.144 179.921C702.438 179.838 702.711 179.694 702.945 179.499C703.18 179.304 703.371 179.061 703.506 178.788C703.642 178.514 703.718 178.215 703.73 177.91C705.39 170.47 705.39 169.85 705.39 169.21C705.39 166.94 704.15 165.91 701.24 165.91H651.6C639.8 165.91 636.7 169.21 634.42 179.97M715.78 119H653.88C631.03 119 614.78 123.17 602.75 132.1C590.72 141.03 582.97 154.7 578.75 174.75C570.85 212.35 570.15 217.88 570.15 224.13C570.15 239.63 575.92 251.21 587.3 258.59C596.8 264.76 610.06 267.59 629 267.59H719.06C724.097 267.68 729.011 266.028 732.972 262.915C736.933 259.801 739.698 255.416 740.8 250.5C740.8 250.3 740.9 250.1 740.94 249.9L746 225.8C746.787 221.979 746.51 218.015 745.2 214.34C750.53 210.19 754.13 203.89 755.86 195.58C762.1 167.3 763.06 161.26 763.06 155.22C763.06 138.92 755.24 130.42 748.69 126.16C741.01 121.16 730.87 118.96 715.79 118.96L715.78 119ZM423.93 134.67C421 134.67 418 134.67 415.33 134.57C412.923 134.531 410.555 133.961 408.394 132.9C406.233 131.839 404.334 130.314 402.831 128.434C401.328 126.554 400.259 124.365 399.7 122.023C399.142 119.682 399.108 117.246 399.6 114.89C403.44 96.69 408.6 77.39 420.27 59.74C421.019 58.6233 421.918 57.614 422.94 56.74C427.4 42.82 439.08 20.44 469.1 8.64001C471.156 7.82715 473.432 7.75927 475.532 8.44813C477.633 9.13699 479.427 10.5392 480.602 12.4116C481.778 14.2841 482.261 16.5088 481.968 18.7003C481.676 20.8917 480.626 22.9116 479 24.41C474.529 28.5236 470.384 32.9769 466.6 37.73H467.2C476.66 26.95 492.7 14.73 518 12.1C518.34 12.1 518.68 12.05 519 12.05C521.114 12.0615 523.163 12.7799 524.821 14.0908C526.479 15.4017 527.651 17.2297 528.151 19.2837C528.65 21.3378 528.447 23.4997 527.575 25.4254C526.704 27.3511 525.213 28.9297 523.34 29.91C515.512 33.8374 508.228 38.7653 501.67 44.57C510.02 51.67 514.87 62.57 515.07 74.94C515.201 82.6244 513.506 90.2301 510.125 97.1317C506.743 104.033 501.772 110.034 495.62 114.64C474.9 130.1 451.07 133.32 434.96 134.4C431.68 134.57 428.18 134.67 423.94 134.67H423.93Z" fill="white"/>
<path d="M472.58 16C472.874 16.0044 473.159 16.0961 473.401 16.2634C473.642 16.4307 473.828 16.6661 473.936 16.9395C474.043 17.2129 474.066 17.5121 474.003 17.7989C473.94 18.0857 473.792 18.3471 473.58 18.55C466.41 25.21 454.38 37.75 450.34 50.25C454.262 48.6287 458.321 47.3636 462.47 46.47C463.051 46.3504 463.635 46.2403 464.22 46.14C465.875 45.8569 467.544 45.6633 469.22 45.56C468.139 47.1021 467.487 48.9034 467.33 50.78C468.436 48.9383 469.662 47.1711 471 45.49H471.1C479.25 35.26 494.1 22.63 518.84 20.02H519.01C519.337 20.0232 519.653 20.1358 519.908 20.3398C520.163 20.5438 520.342 20.8274 520.417 21.1453C520.492 21.4631 520.458 21.7969 520.321 22.0932C520.183 22.3896 519.951 22.6314 519.66 22.78C511.16 27.2 496.66 35.83 489.32 46.46C491.32 47.01 492.07 47.79 494.09 48.83L494.23 48.89C494.294 48.9233 494.351 48.9673 494.4 49.02C511.86 61.15 511.88 92.52 490.85 108.2C474.01 120.72 454.68 125 434.43 126.37C430.97 126.61 427.49 126.67 423.93 126.67C421.17 126.67 418.35 126.67 415.47 126.57C414.249 126.545 413.048 126.251 411.952 125.711C410.857 125.17 409.893 124.396 409.13 123.442C408.367 122.488 407.823 121.378 407.536 120.191C407.249 119.003 407.227 117.767 407.47 116.57C411.52 97.33 416.62 79.84 426.97 64.19C427.74 63.1512 428.705 62.2716 429.81 61.6H429.88C433.1 50 443 27.5 472 16.1C472.174 16.0271 472.361 15.9897 472.55 15.99M472.55 -0.00999451C470.363 -0.00923228 468.196 0.401179 466.16 1.20001C450.73 7.27001 438.06 16.62 428.58 29C423.18 36.07 418.934 43.9511 416 52.35C415.123 53.2805 414.327 54.2841 413.62 55.35C401.2 74.1 395.8 94.27 391.8 113.27C391.064 116.781 391.113 120.411 391.945 123.901C392.776 127.391 394.369 130.653 396.609 133.455C398.849 136.257 401.681 138.529 404.902 140.109C408.123 141.688 411.653 142.535 415.24 142.59L423.94 142.69C428.36 142.69 432.04 142.59 435.5 142.35C471.27 139.95 489.68 129.03 500.42 121.02C507.585 115.654 513.375 108.665 517.314 100.627C521.253 92.5884 523.229 83.7303 523.08 74.78C522.995 64.192 519.581 53.8992 513.32 45.36C517.671 42.2453 522.243 39.4512 527 37C530.482 35.2059 533.26 32.2935 534.889 28.7306C536.517 25.1677 536.9 21.161 535.977 17.3541C535.054 13.5471 532.879 10.1608 529.8 7.73893C526.721 5.31709 522.917 4.00029 519 4.00001C518.382 3.99841 517.764 4.0318 517.15 4.10001C507.419 5.05626 497.909 7.59992 489 11.63L488.8 11.11C487.535 7.83636 485.308 5.02261 482.413 3.0394C479.518 1.05618 476.089 -0.00347787 472.58 5.49294e-06L472.55 -0.00999451Z" fill="white"/>
<path d="M381.56 290.07C380.205 290.069 378.873 289.723 377.689 289.066C376.504 288.409 375.506 287.462 374.787 286.314C374.068 285.165 373.653 283.853 373.58 282.501C373.507 281.148 373.779 279.799 374.37 278.58C375.37 276.45 377.63 273.68 383.75 266.25C388.22 260.83 393.65 254.25 396.57 249.92C396.74 244.85 395.57 237.7 394.32 230.74C392.77 222.12 391.18 213.22 391.77 204.92C393.49 180.92 410.55 145.75 413.95 138.92C416.395 133.675 420.658 129.493 425.95 127.15C427.75 126.31 432.4 124.68 442.73 123.45C460.55 121.01 478.87 117.05 492.23 104.67C502.63 95.07 513.5 92.17 526.63 90.77C535.75 89.77 545.07 88.42 554.08 87.07L572.58 84.44C576.996 83.8457 581.445 83.535 585.9 83.51C587.2 83.51 588.47 83.51 589.72 83.61C598.78 84.06 603.8 88.11 606.42 91.44C609.04 94.77 611.92 100.87 610.12 110.22C606.12 131.09 593.26 151.7 575.26 167.12C579.112 169.085 582.296 172.147 584.41 175.92C587.96 182.35 587.95 190.38 584.41 197.92C577.503 212.544 566.978 225.162 553.83 234.58C530.83 251.22 506.13 259.65 480.43 259.65H475.38L459.48 259.85C458.971 261.829 457.825 263.586 456.22 264.85C431.34 284.52 403.55 288.67 382.12 290.09L381.56 290.07ZM493.2 200.9C492.815 203.326 492.274 205.724 491.58 208.08C494.972 207.859 498.346 207.418 501.68 206.76C506.32 205.76 511.48 202.26 515.85 199.09L493.52 198.89L493.2 200.89V200.9ZM497.4 152.45H501.27C504.87 152.45 507.82 152.35 510.51 152.09C518.78 151.35 525.51 147.99 530.51 142.09C523.76 142.46 516.85 143.09 510.17 143.72L499.17 144.72L495.57 145.02C496.477 147.417 497.092 149.915 497.4 152.46V152.45Z" fill="white"/>
<path d="M585.94 91.54L589.36 91.62C599.42 92.12 604.21 98.72 602.28 108.72C597.65 132.72 579.66 157.19 555.33 171.64C559.19 171.86 562.08 171.88 564.93 172.24C576.86 173.68 582.29 183.67 577.15 194.54C570.839 207.947 561.199 219.515 549.15 228.14C528.6 243 506 251.7 480.4 251.7H475.33C463.09 251.7 443.63 252.24 443.23 252.48C443.038 252.588 442.884 252.753 442.788 252.952C442.692 253.15 442.659 253.374 442.694 253.591C442.729 253.809 442.83 254.011 442.983 254.17C443.136 254.329 443.334 254.437 443.55 254.48L450.65 256.16C450.905 256.219 451.139 256.348 451.325 256.533C451.51 256.718 451.64 256.952 451.7 257.207C451.759 257.462 451.746 257.729 451.661 257.977C451.576 258.225 451.423 258.445 451.22 258.61C430.65 274.87 407.75 280.41 381.54 282.14C383.16 278.82 399.38 260.91 404.38 252.6C405.04 246.7 403.88 238.9 402.18 229.4C400.73 221.27 399.18 212.86 399.74 205.56C401.38 182.56 419.09 146.62 421.1 142.56C423.32 138.12 426.27 135.72 429.23 134.56C429.23 134.56 432.6 132.81 443.78 131.48C463.38 128.8 482.92 124.31 497.7 110.65C506.8 102.23 516.3 100.01 527.5 98.82C542.93 97.17 558.25 94.48 573.64 92.48C577.714 91.9252 581.819 91.6346 585.93 91.61M492.13 160.41L501.27 160.55C504.63 160.55 507.94 160.45 511.27 160.15C521.85 159.21 531.1 154.57 537.7 146.03C538.778 144.452 539.526 142.674 539.9 140.8C540.206 139.627 540.051 138.382 539.467 137.32C538.883 136.258 537.914 135.46 536.76 135.09C535.154 134.505 533.468 134.167 531.76 134.09H531.32C520.32 134.64 509.44 135.87 498.5 136.77L469.18 139.01C475.18 140.14 480.38 141.29 482.83 142.27C487.98 144.33 489.91 150.5 489.89 160.32H492.16M479.52 216.62C487.82 216.32 495.72 216.14 503.35 214.56C509.98 213.18 516.23 208.71 521.9 204.56C524.2 202.89 525.9 198.12 525.2 195.38C524.73 193.38 520.04 191.12 517.2 191.08L486.7 190.84L485.33 199.6C484.348 205.551 482.381 211.296 479.51 216.6M585.94 75.54C581.14 75.5631 576.347 75.8971 571.59 76.54L552.95 79.19L525.82 82.84C513.1 84.19 499.57 87.07 486.82 98.84C475.09 109.68 458.22 113.29 441.72 115.54C431.39 116.77 425.77 118.48 422.72 119.84C415.685 122.913 410.001 128.43 406.72 135.37C403.2 142.37 385.54 178.84 383.72 204.37C383.06 213.67 384.82 223.49 386.37 232.17C387.371 237.211 388.079 242.307 388.49 247.43C385.57 251.43 381.04 256.9 377.49 261.18C370.89 269.18 368.55 272.08 367.09 275.11C365.903 277.549 365.356 280.251 365.5 282.96C365.644 285.669 366.475 288.297 367.914 290.596C369.352 292.896 371.352 294.792 373.726 296.107C376.099 297.421 378.767 298.11 381.48 298.11H382.54C405.14 296.61 434.47 292.21 461.08 271.11C462.297 270.149 463.383 269.033 464.31 267.79L475.31 267.69H480.31C507.74 267.69 534.01 258.75 558.41 241.09C572.658 230.89 584.062 217.217 591.54 201.37C596.24 191.47 596.14 180.77 591.34 172.07C590.259 170.114 588.957 168.289 587.46 166.63C603.16 150.98 614.19 131.46 617.99 111.73C619.84 102.13 617.99 93.17 612.74 86.5C607.49 79.83 599.57 76.1 590.14 75.62C588.77 75.56 587.34 75.52 585.94 75.52V75.54Z" fill="white"/>
<path d="M171.5 140L166.5 163.78C165.67 167.08 163.8 168.78 160.5 168.78H80.8C69 168.78 66.1 172.08 63 186.16C59.07 204.56 58.45 207.66 58.45 210.16C58.45 216.36 61.75 218.02 70.25 218.02H150C153.32 218.02 154.56 219.68 153.94 223.02L148.94 246.82C148.107 250.153 146.04 251.82 142.74 251.82H58.86C28 251.67 16 243.6 16 224.17C16 219.62 16.62 214.45 24.28 178.05C30.7 147.23 45.61 135.05 83.71 135.05H167.57C170.87 135.05 172.12 136.71 171.5 140.05V140ZM232.65 102.77L202.21 245.47C201.377 249.603 198.893 251.67 194.76 251.67H166.76C162.627 251.67 160.96 249.603 161.76 245.47L192.2 102.77C193.027 98.6367 195.51 96.57 199.65 96.57H227.65C231.783 96.57 233.45 98.6367 232.65 102.77ZM398.43 141.24L384.15 208.64C377.52 239.46 362.61 251.64 324.52 251.64H265.52C234.67 251.64 222.67 243.78 222.67 224.34C222.742 219.05 223.366 213.781 224.53 208.62L238.83 141.22C239.61 137.073 242.083 135 246.25 135H274.2C278.333 135 280 137.067 279.2 141.2L267 198.5C266.102 202.164 265.55 205.903 265.35 209.67C265.35 214.67 267.83 215.87 275.49 215.87H328C339.8 215.87 342.9 212.57 345.8 198.5L358.02 141.22C358.847 137.087 361.33 135.02 365.47 135.02H393.42C397.573 135.02 399.24 137.087 398.42 141.22L398.43 141.24ZM740.2 192.3C738.34 201.4 734 204.3 725.7 204.3H629.2C628.653 206.54 628.318 208.827 628.2 211.13C628.2 215.88 631.1 217.95 640.4 217.95H726.33C729.63 217.95 730.89 219.61 730.26 222.95L725.26 246.75C724.44 250.083 722.373 251.75 719.06 251.75H629C598.14 251.75 586.14 243.69 586.14 224.25C586.14 219.7 586.76 214.53 594.42 178.13C600.84 147.31 615.74 135.13 653.84 135.13H715.74C738.51 135.13 747.01 140.71 747.01 155.4C747.01 159.54 746.38 164.3 740.17 192.4L740.2 192.3ZM701.27 165.84H651.57C639.77 165.84 636.67 169.14 634.39 179.9H701.26C701.562 179.944 701.87 179.923 702.164 179.84C702.458 179.758 702.731 179.614 702.965 179.419C703.2 179.224 703.391 178.981 703.526 178.708C703.662 178.434 703.738 178.135 703.75 177.83C705.41 170.39 705.41 169.77 705.41 169.13C705.41 166.86 704.17 165.83 701.26 165.83L701.27 165.84ZM899.91 192.3C898.05 201.4 893.71 204.3 885.41 204.3H788.93C788.385 206.541 788.051 208.827 787.93 211.13C787.93 215.88 790.83 217.95 800.15 217.95H886.08C889.38 217.95 890.63 219.61 890.01 222.95L885.01 246.75C884.177 250.083 882.11 251.75 878.81 251.75H788.73C757.88 251.75 745.87 243.69 745.87 224.25C745.87 219.7 746.49 214.53 754.15 178.13C760.57 147.31 775.48 135.13 813.58 135.13H875.48C898.25 135.13 906.74 140.71 906.74 155.4C906.74 159.54 906.12 164.3 899.91 192.4V192.3ZM861 165.85H811.3C799.5 165.85 796.4 169.15 794.12 179.91H861C861.302 179.952 861.609 179.931 861.902 179.847C862.195 179.764 862.468 179.62 862.702 179.425C862.937 179.23 863.128 178.989 863.263 178.716C863.399 178.443 863.476 178.144 863.49 177.84C865.15 170.4 865.15 169.78 865.15 169.14C865.15 166.87 863.9 165.84 861 165.84V165.85Z" fill="#0B1F40"/>
</g>
<defs>
<clipPath id="clip0_1_2">
<rect width="922.75" height="298.07" fill="white"/>
</clipPath>
</defs>
</svg>
